<?xml version="1.0" encoding="UTF-8" standalone="no"?>
<svg
   width="4120"
   height="2892"
   xml:space="preserve"
   overflow="hidden"
   version="1.1"
   id="svg746"
   sodipodi:docname="securefasta.svg"
   inkscape:version="1.2.1 (9c6d41e4, 2022-07-14)"
   xmlns:inkscape="http://www.inkscape.org/namespaces/inkscape"
   xmlns:sodipodi="http://sodipodi.sourceforge.net/DTD/sodipodi-0.dtd"
   xmlns="http://www.w3.org/2000/svg"
   xmlns:svg="http://www.w3.org/2000/svg"><sodipodi:namedview
     id="namedview748"
     pagecolor="#ffffff"
     bordercolor="#000000"
     borderopacity="0.25"
     inkscape:showpageshadow="2"
     inkscape:pageopacity="0.0"
     inkscape:pagecheckerboard="0"
     inkscape:deskcolor="#d1d1d1"
     showgrid="false"
     inkscape:zoom="0.48229806"
     inkscape:cx="1854.6622"
     inkscape:cy="1599.6332"
     inkscape:window-width="1920"
     inkscape:window-height="1027"
     inkscape:window-x="1280"
     inkscape:window-y="25"
     inkscape:window-maximized="1"
     inkscape:current-layer="g744" /><defs
     id="defs392"><clipPath
       id="clip0"><rect
         x="-261"
         y="192"
         width="4120"
         height="2892"
         id="rect182" /></clipPath><clipPath
       id="clip1"><rect
         x="2736"
         y="1131"
         width="470"
         height="470"
         id="rect185" /></clipPath><clipPath
       id="clip2"><rect
         x="2736"
         y="1131"
         width="470"
         height="470"
         id="rect188" /></clipPath><clipPath
       id="clip3"><rect
         x="2736"
         y="1131"
         width="470"
         height="470"
         id="rect191" /></clipPath><clipPath
       id="clip4"><rect
         x="3247"
         y="1183"
         width="169"
         height="168"
         id="rect194" /></clipPath><clipPath
       id="clip5"><rect
         x="3247"
         y="1183"
         width="169"
         height="168"
         id="rect197" /></clipPath><clipPath
       id="clip6"><rect
         x="3247"
         y="1183"
         width="169"
         height="168"
         id="rect200" /></clipPath><clipPath
       id="clip7"><rect
         x="3246"
         y="1347"
         width="170"
         height="169"
         id="rect203" /></clipPath><clipPath
       id="clip8"><rect
         x="3246"
         y="1347"
         width="170"
         height="169"
         id="rect206" /></clipPath><clipPath
       id="clip9"><rect
         x="3246"
         y="1347"
         width="170"
         height="169"
         id="rect209" /></clipPath><clipPath
       id="clip10"><rect
         x="339"
         y="1130"
         width="470"
         height="471"
         id="rect212" /></clipPath><clipPath
       id="clip11"><rect
         x="339"
         y="1130"
         width="470"
         height="471"
         id="rect215" /></clipPath><clipPath
       id="clip12"><rect
         x="339"
         y="1130"
         width="470"
         height="471"
         id="rect218" /></clipPath><clipPath
       id="clip13"><rect
         x="163"
         y="1197"
         width="169"
         height="169"
         id="rect221" /></clipPath><clipPath
       id="clip14"><rect
         x="163"
         y="1197"
         width="169"
         height="169"
         id="rect224" /></clipPath><clipPath
       id="clip15"><rect
         x="163"
         y="1197"
         width="169"
         height="169"
         id="rect227" /></clipPath><clipPath
       id="clip16"><rect
         x="159"
         y="1357"
         width="177"
         height="177"
         id="rect230" /></clipPath><clipPath
       id="clip17"><rect
         x="159"
         y="1357"
         width="177"
         height="177"
         id="rect233" /></clipPath><clipPath
       id="clip18"><rect
         x="159"
         y="1357"
         width="177"
         height="177"
         id="rect236" /></clipPath><clipPath
       id="clip19"><path
         d="M959.421 838.167 1122.27 650.826 1309.61 813.679 1146.76 1001.02Z"
         fill-rule="nonzero"
         clip-rule="nonzero"
         id="path239" /></clipPath><clipPath
       id="clip20"><path
         d="M959.421 838.167 1122.27 650.827 1309.61 813.679 1146.76 1001.02Z"
         fill-rule="evenodd"
         clip-rule="evenodd"
         id="path242" /></clipPath><clipPath
       id="clip21"><path
         d="M959.421 838.167 1122.27 650.827 1309.61 813.679 1146.76 1001.02Z"
         fill-rule="evenodd"
         clip-rule="evenodd"
         id="path245" /></clipPath><clipPath
       id="clip22"><path
         d="M1332.62 836.949 1169.77 1024.29 1357.11 1187.14 1519.96 999.801Z"
         fill-rule="nonzero"
         clip-rule="nonzero"
         id="path248" /></clipPath><clipPath
       id="clip23"><path
         d="M1332.62 836.949 1169.77 1024.29 1357.11 1187.14 1519.96 999.801Z"
         fill-rule="evenodd"
         clip-rule="evenodd"
         id="path251" /></clipPath><clipPath
       id="clip24"><path
         d="M1332.62 836.949 1169.77 1024.29 1357.11 1187.14 1519.96 999.801Z"
         fill-rule="evenodd"
         clip-rule="evenodd"
         id="path254" /></clipPath><clipPath
       id="clip25"><rect
         x="749"
         y="2538"
         width="270"
         height="271"
         id="rect257" /></clipPath><clipPath
       id="clip26"><rect
         x="749"
         y="2538"
         width="270"
         height="271"
         id="rect260" /></clipPath><clipPath
       id="clip27"><rect
         x="749"
         y="2538"
         width="270"
         height="271"
         id="rect263" /></clipPath><clipPath
       id="clip28"><rect
         x="818"
         y="2629"
         width="142"
         height="142"
         id="rect266" /></clipPath><clipPath
       id="clip29"><rect
         x="818"
         y="2629"
         width="142"
         height="142"
         id="rect269" /></clipPath><clipPath
       id="clip30"><rect
         x="818"
         y="2629"
         width="142"
         height="142"
         id="rect272" /></clipPath><clipPath
       id="clip31"><rect
         x="701"
         y="2480"
         width="153"
         height="154"
         id="rect275" /></clipPath><clipPath
       id="clip32"><rect
         x="701"
         y="2480"
         width="153"
         height="154"
         id="rect278" /></clipPath><clipPath
       id="clip33"><rect
         x="701"
         y="2480"
         width="153"
         height="154"
         id="rect281" /></clipPath><clipPath
       id="clip34"><rect
         x="706"
         y="1808"
         width="152"
         height="152"
         id="rect284" /></clipPath><clipPath
       id="clip35"><rect
         x="706"
         y="1808"
         width="152"
         height="152"
         id="rect287" /></clipPath><clipPath
       id="clip36"><rect
         x="706"
         y="1808"
         width="152"
         height="152"
         id="rect290" /></clipPath><clipPath
       id="clip37"><rect
         x="749"
         y="1870"
         width="270"
         height="270"
         id="rect293" /></clipPath><clipPath
       id="clip38"><rect
         x="749"
         y="1870"
         width="270"
         height="270"
         id="rect296" /></clipPath><clipPath
       id="clip39"><rect
         x="749"
         y="1870"
         width="270"
         height="270"
         id="rect299" /></clipPath><clipPath
       id="clip40"><rect
         x="66"
         y="2145"
         width="162"
         height="191"
         id="rect302" /></clipPath><clipPath
       id="clip41"><rect
         x="66"
         y="2145"
         width="162"
         height="191"
         id="rect305" /></clipPath><clipPath
       id="clip42"><rect
         x="66"
         y="2145"
         width="162"
         height="191"
         id="rect308" /></clipPath><clipPath
       id="clip43"><rect
         x="192"
         y="2307"
         width="143"
         height="143"
         id="rect311" /></clipPath><clipPath
       id="clip44"><rect
         x="192"
         y="2307"
         width="143"
         height="143"
         id="rect314" /></clipPath><clipPath
       id="clip45"><rect
         x="192"
         y="2307"
         width="143"
         height="143"
         id="rect317" /></clipPath><clipPath
       id="clip46"><rect
         x="124"
         y="2216"
         width="269"
         height="270"
         id="rect320" /></clipPath><clipPath
       id="clip47"><rect
         x="124"
         y="2216"
         width="269"
         height="270"
         id="rect323" /></clipPath><clipPath
       id="clip48"><rect
         x="124"
         y="2216"
         width="269"
         height="270"
         id="rect326" /></clipPath><clipPath
       id="clip49"><rect
         x="2451"
         y="2228"
         width="271"
         height="272"
         id="rect329" /></clipPath><clipPath
       id="clip50"><rect
         x="2451"
         y="2228"
         width="271"
         height="272"
         id="rect332" /></clipPath><clipPath
       id="clip51"><rect
         x="2451"
         y="2228"
         width="271"
         height="272"
         id="rect335" /></clipPath><clipPath
       id="clip52"><rect
         x="2520"
         y="2319"
         width="142"
         height="143"
         id="rect338" /></clipPath><clipPath
       id="clip53"><rect
         x="2520"
         y="2319"
         width="142"
         height="143"
         id="rect341" /></clipPath><clipPath
       id="clip54"><rect
         x="2520"
         y="2319"
         width="142"
         height="143"
         id="rect344" /></clipPath><clipPath
       id="clip55"><rect
         x="2399"
         y="2168"
         width="151"
         height="152"
         id="rect347" /></clipPath><clipPath
       id="clip56"><rect
         x="2399"
         y="2168"
         width="151"
         height="152"
         id="rect350" /></clipPath><clipPath
       id="clip57"><rect
         x="2399"
         y="2168"
         width="151"
         height="152"
         id="rect353" /></clipPath><clipPath
       id="clip58"><rect
         x="3129"
         y="2162"
         width="153"
         height="154"
         id="rect356" /></clipPath><clipPath
       id="clip59"><rect
         x="3129"
         y="2162"
         width="153"
         height="154"
         id="rect359" /></clipPath><clipPath
       id="clip60"><rect
         x="3129"
         y="2162"
         width="153"
         height="154"
         id="rect362" /></clipPath><clipPath
       id="clip61"><rect
         x="3172"
         y="2226"
         width="270"
         height="269"
         id="rect365" /></clipPath><clipPath
       id="clip62"><rect
         x="3172"
         y="2226"
         width="270"
         height="269"
         id="rect368" /></clipPath><clipPath
       id="clip63"><rect
         x="3172"
         y="2226"
         width="270"
         height="269"
         id="rect371" /></clipPath><clipPath
       id="clip64"><path
         d="M2110.84 1023.38 2273.69 1210.72 2461.03 1047.87 2298.18 860.531Z"
         fill-rule="nonzero"
         clip-rule="nonzero"
         id="path374" /></clipPath><clipPath
       id="clip65"><path
         d="M2110.84 1023.38 2273.69 1210.72 2461.03 1047.87 2298.18 860.531Z"
         fill-rule="evenodd"
         clip-rule="evenodd"
         id="path377" /></clipPath><clipPath
       id="clip66"><path
         d="M2110.84 1023.38 2273.69 1210.72 2461.03 1047.87 2298.18 860.531Z"
         fill-rule="evenodd"
         clip-rule="evenodd"
         id="path380" /></clipPath><clipPath
       id="clip67"><path
         d="M2484.04 1024.6 2321.19 837.261 2508.53 674.409 2671.38 861.749Z"
         fill-rule="nonzero"
         clip-rule="nonzero"
         id="path383" /></clipPath><clipPath
       id="clip68"><path
         d="M2484.04 1024.6 2321.19 837.261 2508.53 674.409 2671.38 861.749Z"
         fill-rule="evenodd"
         clip-rule="evenodd"
         id="path386" /></clipPath><clipPath
       id="clip69"><path
         d="M2484.04 1024.6 2321.19 837.261 2508.53 674.409 2671.38 861.749Z"
         fill-rule="evenodd"
         clip-rule="evenodd"
         id="path389" /></clipPath></defs><g
     clip-path="url(#clip0)"
     transform="translate(261 -192)"
     id="g744"><g
       clip-path="url(#clip1)"
       id="g404"><g
         clip-path="url(#clip2)"
         id="g402"><g
           clip-path="url(#clip3)"
           id="g400"><path
             d="M3127 1453.75C3126.75 1441.54 3121.02 1430.08 3111.4 1422.55 3089.95 1405 3062.65 1393.3 3035.35 1385.5 3014.49 1379.12 2992.81 1375.83 2971 1375.75 2949.21 1376.13 2927.57 1379.4 2906.65 1385.5 2879.39 1393.46 2853.67 1405.98 2830.6 1422.55 2820.98 1430.08 2815.25 1441.54 2815 1453.75L2815 1531.75 3127 1531.75Z"
             fill="#338276"
             fill-rule="nonzero"
             fill-opacity="1"
             id="path394" /><path
             d="M3054.41 1334.8C3049.93 1317.25 3067.09 1273.38 3067.23 1242.47 3067.23 1217.75 3060.21 1206.69 3046.95 1199.18 3039.3 1194.84 3021.65 1198.84 3021.65 1198.84 3021.65 1198.84 3012.54 1181.58 2982.02 1172.07 2956.94 1165.25 2930.18 1168.67 2907.62 1181.58 2888.76 1193.77 2879.64 1207.17 2879.2 1253.29 2878.81 1295.56 2884.61 1333.09 2881.93 1350.79 2880.7 1360.59 2876.97 1369.9 2871.11 1377.85 2871.11 1377.85 2900.36 1381.6 2916.69 1372.97 2924.91 1367.46 2932.7 1361.33 2940 1354.64 2914.98 1342.97 2896.74 1320.42 2890.56 1293.51 2889.93 1291.17 2885.69 1275.86 2892.46 1267.28 2896.17 1262.41 2904.65 1261.04 2918.79 1258.56 2935.71 1256.33 2952.23 1251.68 2967.83 1244.76 2985.37 1235.94 3001.64 1224.79 3016.19 1211.61 3018.11 1209.72 3021.2 1209.74 3023.09 1211.66 3023.8 1212.39 3024.27 1213.33 3024.43 1214.34 3025.59 1222.36 3028.38 1230.06 3032.62 1236.96 3034.61 1239.5 3037.05 1241.65 3039.84 1243.3 3043.08 1245.24 3045.87 1247.85 3048.03 1250.95 3051.55 1257.82 3053.54 1265.37 3053.88 1273.08 3053.56 1308.66 3032.42 1340.74 2999.86 1355.08 3006 1360.49 3014.05 1367.17 3022.92 1373.61 3037.54 1384.18 3072.89 1369.56 3072.89 1369.56 3072.89 1369.56 3061.48 1362.73 3054.41 1334.8Z"
             fill="#338276"
             fill-rule="nonzero"
             fill-opacity="1"
             id="path396" /><path
             d="M3044.12 1273.38C3043.86 1267.48 3042.44 1261.7 3039.93 1256.36 3038.5 1254.34 3036.64 1252.68 3034.47 1251.49 3030.74 1249.24 3027.44 1246.35 3024.72 1242.96 3020.8 1237.31 3017.97 1230.97 3016.39 1224.28 3002.78 1235.71 2987.89 1245.53 2972.02 1253.53 2955.55 1260.86 2938.12 1265.79 2920.25 1268.16 2912.01 1269.62 2901.73 1271.43 2899.97 1273.28 2897.05 1277.08 2898.56 1286.78 2899.97 1290.88 2908.31 1326.03 2938.14 1351.38 2971 1351.38 3010 1351.38 3044.12 1314.91 3044.12 1273.38Z"
             fill="#338276"
             fill-rule="nonzero"
             fill-opacity="1"
             id="path398" /></g></g></g><text
       fill="#000000"
       fill-opacity="1"
       font-family="Arial,Arial_MSFontService,sans-serif"
       font-style="normal"
       font-variant="normal"
       font-weight="700"
       font-stretch="normal"
       font-size="90"
       text-anchor="start"
       direction="ltr"
       writing-mode="lr-tb"
       unicode-bidi="normal"
       text-decoration="none"
       transform="matrix(1 0 0 1 2876.68 1655)"
       id="text406">Alice</text><g
       clip-path="url(#clip4)"
       id="g414"><g
         clip-path="url(#clip5)"
         id="g412"><g
           clip-path="url(#clip6)"
           id="g410"><path
             d="M112.203 89.5886 123.51 100.896 134.818 89.5886 146.125 100.896 160.042 83.5 146.125 66.1042 75.6719 66.1042C69.4094 54.6229 57.4063 46.9688 43.4896 46.9688 23.3104 46.9688 6.95834 63.3209 6.95834 83.5 6.95834 103.679 23.3104 120.031 43.4896 120.031 57.4063 120.031 69.4094 112.377 75.6719 100.896L86.9792 100.896 93.9375 93.9375 100.896 100.896 112.203 89.5886ZM27.8333 93.9375C22.0927 93.9375 17.3958 89.2407 17.3958 83.5 17.3958 77.7594 22.0927 73.0625 27.8333 73.0625 33.574 73.0625 38.2708 77.7594 38.2708 83.5 38.2708 89.2407 33.574 93.9375 27.8333 93.9375Z"
             fill="#338276"
             fill-rule="nonzero"
             fill-opacity="1"
             transform="matrix(-1.00599 0 0 1 3415 1184)"
             id="path408" /></g></g></g><g
       clip-path="url(#clip7)"
       id="g424"><g
         clip-path="url(#clip8)"
         id="g422"><g
           clip-path="url(#clip9)"
           id="g420"><path
             d="M76.578 66.9151C66.8556 48.9547 44.4142 42.2765 26.4537 51.9991 8.49335 61.7215 1.81523 84.1629 11.5377 102.123 21.2602 120.084 43.7016 126.762 61.662 117.039 67.9768 113.621 73.1596 108.438 76.578 102.123L88.0207 102.123 95.0624 95.0817 102.104 102.123 113.547 90.6807 124.989 102.123 136.432 90.6807 147.875 102.123 161.958 84.5192 147.875 66.9151ZM147.586 96.8597 138.928 88.1968 136.432 85.7075 133.948 88.1968 124.989 97.1537 116.043 88.1968 113.547 85.7075 111.063 88.1968 102.104 97.1537 97.5569 92.5978 95.0624 90.1103 92.5767 92.5978 86.5666 98.6096 74.4919 98.6096 73.4902 100.446C64.6958 116.697 44.3918 122.743 28.1402 113.948 11.8887 105.154 5.84345 84.8497 14.6379 68.5981 23.4323 52.3464 43.7363 46.3012 59.9879 55.0957 65.7048 58.1894 70.3967 62.8813 73.4902 68.5981L74.4919 70.4342 146.19 70.4342 151.806 77.4582 80.9791 77.4582 80.9791 80.9791 154.622 80.9791 157.457 84.5228Z"
             fill="#338276"
             fill-rule="nonzero"
             fill-opacity="1"
             transform="matrix(-1.00592 0 0 1 3416 1347)"
             id="path416" /><path
             d="M28.1666 73.9585C22.3331 73.9585 17.6041 78.6875 17.6041 84.521 17.6041 90.3545 22.3331 95.0835 28.1666 95.0835 34.0001 95.0835 38.7291 90.3545 38.7291 84.521 38.7108 78.6951 33.9925 73.9768 28.1666 73.9585ZM28.1666 91.5627C24.2777 91.5627 21.125 88.4099 21.125 84.521 21.125 80.6321 24.2777 77.4794 28.1666 77.4794 32.0556 77.4794 35.2083 80.6321 35.2083 84.521 35.2053 88.4096 32.0552 91.5621 28.1666 91.5679Z"
             fill="#338276"
             fill-rule="nonzero"
             fill-opacity="1"
             transform="matrix(-1.00592 0 0 1 3416 1347)"
             id="path418" /></g></g></g><text
       fill="#000000"
       fill-opacity="1"
       font-family="Arial,Arial_MSFontService,sans-serif"
       font-style="normal"
       font-variant="normal"
       font-weight="700"
       font-stretch="normal"
       font-size="67"
       text-anchor="start"
       direction="ltr"
       writing-mode="lr-tb"
       unicode-bidi="normal"
       text-decoration="none"
       transform="matrix(1 0 0 1 3447.53 1296)"
       id="text426">Public </text><text
       fill="#000000"
       fill-opacity="1"
       font-family="Arial,Arial_MSFontService,sans-serif"
       font-style="normal"
       font-variant="normal"
       font-weight="700"
       font-stretch="normal"
       font-size="67"
       text-anchor="start"
       direction="ltr"
       writing-mode="lr-tb"
       unicode-bidi="normal"
       text-decoration="none"
       transform="matrix(1 0 0 1 3668.67 1296)"
       id="text428">K</text><text
       fill="#000000"
       fill-opacity="1"
       font-family="Arial,Arial_MSFontService,sans-serif"
       font-style="normal"
       font-variant="normal"
       font-weight="700"
       font-stretch="normal"
       font-size="67"
       text-anchor="start"
       direction="ltr"
       writing-mode="lr-tb"
       unicode-bidi="normal"
       text-decoration="none"
       transform="matrix(1 0 0 1 3717.37 1296)"
       id="text430">ey</text><text
       fill="#000000"
       fill-opacity="1"
       font-family="Arial,Arial_MSFontService,sans-serif"
       font-style="normal"
       font-variant="normal"
       font-weight="700"
       font-stretch="normal"
       font-size="67"
       text-anchor="start"
       direction="ltr"
       writing-mode="lr-tb"
       unicode-bidi="normal"
       text-decoration="none"
       transform="matrix(1 0 0 1 3447.53 1459)"
       id="text432">Private </text><text
       fill="#000000"
       fill-opacity="1"
       font-family="Arial,Arial_MSFontService,sans-serif"
       font-style="normal"
       font-variant="normal"
       font-weight="700"
       font-stretch="normal"
       font-size="67"
       text-anchor="start"
       direction="ltr"
       writing-mode="lr-tb"
       unicode-bidi="normal"
       text-decoration="none"
       transform="matrix(1 0 0 1 3690.45 1459)"
       id="text434">Key</text><g
       clip-path="url(#clip10)"
       id="g446"><g
         clip-path="url(#clip11)"
         id="g444"><g
           clip-path="url(#clip12)"
           id="g442"><path
             d="M390.833 322.437C390.578 310.197 384.839 298.719 375.2 291.171 353.704 273.583 326.346 261.858 298.987 254.042 278.086 247.643 256.358 244.351 234.5 244.271 212.666 244.647 190.979 247.933 170.012 254.042 142.69 262.015 116.919 274.57 93.8 291.171 84.161 298.719 78.4217 310.197 78.1666 322.437L78.1666 400.604 390.833 400.604Z"
             fill="#2F5597"
             fill-rule="nonzero"
             fill-opacity="1"
             transform="matrix(1 0 0 1 340 1131)"
             id="path436" /><path
             d="M219.844 125.799C232.546 118.325 263.812 94.1908 263.812 94.1908L263.812 94.1908C268.746 94.6183 273.441 96.506 277.296 99.6136 286.679 106.202 294.624 114.629 300.648 124.383 306.071 132.492 310.712 139.039 312.129 140.993L312.667 141.677C315.109 136.792 315.012 123.161 313.302 110.752 310.908 93.6534 308.954 88.5726 298.01 79.388 291.037 73.0687 281.732 69.9665 272.362 70.8385 259.649 60.9734 244.335 55.0313 228.295 53.7396 203.868 52.8602 177.194 65.6111 165.86 80.5605 148.712 103.033 150.617 117.69 150.617 122.917 150.617 128.144 144.608 137.231 148.81 137.231 151.546 137.231 154.233 137.231 156.968 137.231 172.455 136.792 204.064 135.082 219.844 125.799Z"
             fill="#2F5597"
             fill-rule="nonzero"
             fill-opacity="1"
             transform="matrix(1 0 0 1 340 1131)"
             id="path438" /><path
             d="M304.948 147.393C304.703 147.051 299.329 139.576 292.783 129.854 287.407 121.037 280.272 113.42 271.824 107.479 270.18 106.282 268.391 105.297 266.499 104.548 257.803 111.143 235.428 127.949 224.778 134.153 207.874 143.924 177.047 146.514 156.382 146.953 156.918 190.12 192.345 224.68 235.512 224.144 274.068 223.667 306.515 195.145 311.934 156.968Z"
             fill="#2F5597"
             fill-rule="nonzero"
             fill-opacity="1"
             transform="matrix(1 0 0 1 340 1131)"
             id="path440" /></g></g></g><text
       fill="#000000"
       fill-opacity="1"
       font-family="Arial,Arial_MSFontService,sans-serif"
       font-style="normal"
       font-variant="normal"
       font-weight="700"
       font-stretch="normal"
       font-size="90"
       text-anchor="start"
       direction="ltr"
       writing-mode="lr-tb"
       unicode-bidi="normal"
       text-decoration="none"
       transform="matrix(1 0 0 1 486.445 1662)"
       id="text448">Bob</text><g
       clip-path="url(#clip13)"
       id="g456"><g
         clip-path="url(#clip14)"
         id="g454"><g
           clip-path="url(#clip15)"
           id="g452"><path
             d="M276.203 1287.59 287.51 1298.9 298.818 1287.59 310.125 1298.9 324.042 1281.5 310.125 1264.1 239.672 1264.1C233.409 1252.62 221.406 1244.97 207.49 1244.97 187.31 1244.97 170.958 1261.32 170.958 1281.5 170.958 1301.68 187.31 1318.03 207.49 1318.03 221.406 1318.03 233.409 1310.38 239.672 1298.9L250.979 1298.9 257.938 1291.94 264.896 1298.9 276.203 1287.59ZM191.833 1291.94C186.093 1291.94 181.396 1287.24 181.396 1281.5 181.396 1275.76 186.093 1271.06 191.833 1271.06 197.574 1271.06 202.271 1275.76 202.271 1281.5 202.271 1287.24 197.574 1291.94 191.833 1291.94Z"
             fill="#2F5597"
             fill-rule="nonzero"
             fill-opacity="1"
             id="path450" /></g></g></g><g
       clip-path="url(#clip16)"
       id="g466"><g
         clip-path="url(#clip17)"
         id="g464"><g
           clip-path="url(#clip18)"
           id="g462"><path
             d="M79.75 69.6868C69.6249 50.9824 46.2539 44.0277 27.5495 54.153 8.84515 64.2781 1.89042 87.6491 12.0156 106.354 22.1408 125.058 45.5118 132.013 64.2162 121.887 70.7925 118.327 76.19 112.93 79.75 106.354L91.6667 106.354 99 99.0202 106.333 106.354 118.25 94.4368 130.167 106.354 142.083 94.4368 154 106.354 168.667 88.0202 154 69.6868ZM153.699 100.872 144.683 91.85 142.083 89.2577 139.496 91.85 130.167 101.178 120.85 91.85 118.25 89.2577 115.663 91.85 106.333 101.178 101.598 96.4333 99 93.8428 96.4113 96.4333 90.1523 102.694 77.5775 102.694 76.5343 104.606C67.3756 121.531 46.2306 127.827 29.3058 118.668 12.3811 109.509 6.08549 88.3643 15.2443 71.4395 24.403 54.5147 45.5479 48.2191 62.4727 57.3778 68.4264 60.5997 73.3126 65.4859 76.5343 71.4395L77.5775 73.3517 152.245 73.3517 158.094 80.6667 84.3333 80.6667 84.3333 84.3333 161.027 84.3333 163.979 88.0238Z"
             fill="#2F5597"
             fill-rule="nonzero"
             fill-opacity="1"
             transform="matrix(1.00568 0 0 1 159 1357)"
             id="path458" /><path
             d="M29.3333 77.022C23.2582 77.022 18.3333 81.9469 18.3333 88.022 18.3333 94.0971 23.2582 99.022 29.3333 99.022 35.4085 99.022 40.3333 94.0971 40.3333 88.022 40.3143 81.9548 35.4006 77.0411 29.3333 77.022ZM29.3333 95.3553C25.2833 95.3553 22 92.072 22 88.022 22 83.972 25.2833 80.6887 29.3333 80.6887 33.3834 80.6887 36.6667 83.972 36.6667 88.022 36.6636 92.0717 33.383 95.3548 29.3333 95.3608Z"
             fill="#2F5597"
             fill-rule="nonzero"
             fill-opacity="1"
             transform="matrix(1.00568 0 0 1 159 1357)"
             id="path460" /></g></g></g><text
       fill="#000000"
       fill-opacity="1"
       font-family="Arial,Arial_MSFontService,sans-serif"
       font-style="normal"
       font-variant="normal"
       font-weight="700"
       font-stretch="normal"
       font-size="67"
       text-anchor="start"
       direction="ltr"
       writing-mode="lr-tb"
       unicode-bidi="normal"
       text-decoration="none"
       transform="matrix(1 0 0 1 -202.606 1308)"
       id="text468">Public </text><text
       fill="#000000"
       fill-opacity="1"
       font-family="Arial,Arial_MSFontService,sans-serif"
       font-style="normal"
       font-variant="normal"
       font-weight="700"
       font-stretch="normal"
       font-size="67"
       text-anchor="start"
       direction="ltr"
       writing-mode="lr-tb"
       unicode-bidi="normal"
       text-decoration="none"
       transform="matrix(1 0 0 1 18.5398 1308)"
       id="text470">Key</text><text
       fill="#000000"
       fill-opacity="1"
       font-family="Arial,Arial_MSFontService,sans-serif"
       font-style="normal"
       font-variant="normal"
       font-weight="700"
       font-stretch="normal"
       font-size="67"
       text-anchor="start"
       direction="ltr"
       writing-mode="lr-tb"
       unicode-bidi="normal"
       text-decoration="none"
       transform="matrix(1 0 0 1 -217.522 1476)"
       id="text472">Private </text><text
       fill="#000000"
       fill-opacity="1"
       font-family="Arial,Arial_MSFontService,sans-serif"
       font-style="normal"
       font-variant="normal"
       font-weight="700"
       font-stretch="normal"
       font-size="67"
       text-anchor="start"
       direction="ltr"
       writing-mode="lr-tb"
       unicode-bidi="normal"
       text-decoration="none"
       transform="matrix(1 0 0 1 25.3942 1476)"
       id="text474">Key</text><g
       clip-path="url(#clip19)"
       id="g482"><g
         clip-path="url(#clip20)"
         id="g480"><g
           clip-path="url(#clip21)"
           id="g478"><path
             d="M1169.34 799.661 1193.05 798.003 1191.39 774.292 1215.1 772.634 1209.16 740.058 1176.07 738.706 1107.37 817.74C1088.38 813.57 1068.09 819.571 1054.52 835.182 1034.84 857.819 1037.24 892.109 1059.88 911.787 1082.51 931.465 1116.8 929.067 1136.48 906.43 1150.05 890.818 1153.17 869.889 1146.4 851.668L1157.42 838.983 1156.4 824.392 1171 823.372 1169.34 799.661ZM1091.94 898.548C1086.34 904.987 1076.49 905.676 1070.05 900.078 1063.61 894.48 1062.93 884.631 1068.52 878.191 1074.12 871.751 1083.97 871.062 1090.41 876.661 1096.85 882.259 1097.54 892.108 1091.94 898.548Z"
             fill="#2F5597"
             fill-rule="nonzero"
             fill-opacity="1"
             id="path476" /></g></g></g><g
       clip-path="url(#clip22)"
       id="g490"><g
         clip-path="url(#clip23)"
         id="g488"><g
           clip-path="url(#clip24)"
           id="g486"><path
             d="M166.778 133.164 183.585 149.971 200.392 133.164 217.199 149.971 237.885 124.114 217.199 98.2569 112.478 98.2569C103.17 81.1912 85.3283 69.8141 64.6427 69.8141 34.6485 69.8141 10.3428 94.1198 10.3428 124.114 10.3428 154.108 34.6485 178.414 64.6427 178.414 85.3283 178.414 103.17 167.037 112.478 149.971L129.285 149.971 139.628 139.628 149.971 149.971 166.778 133.164ZM41.3713 139.628C32.8385 139.628 25.8571 132.647 25.8571 124.114 25.8571 115.581 32.8385 108.6 41.3713 108.6 49.9042 108.6 56.8856 115.581 56.8856 124.114 56.8856 132.647 49.9042 139.628 41.3713 139.628Z"
             fill="#338276"
             fill-rule="nonzero"
             fill-opacity="1"
             transform="matrix(-0.656059 0.75471 0.75471 0.656059 1332.62 836.949)"
             id="path484" /></g></g></g><path
       d="M6.49874-5.62306 755.697 860.248 742.699 871.494-6.49874 5.62306ZM763.071 842.502 777.313 898.364 724.078 876.241Z"
       fill="#4472C4"
       fill-rule="nonzero"
       fill-opacity="1"
       transform="matrix(1 0 0 -1 809.5 1365.86)"
       id="path492" /><path
       d="M6.4869-5.63673 747.15 846.738 734.176 858.012-6.4869 5.63673ZM754.488 828.978 768.847 884.81 715.566 862.799Z"
       fill="#338276"
       fill-rule="nonzero"
       fill-opacity="1"
       transform="matrix(-1 0 0 1 1627.35 518.5)"
       id="path494" /><text
       fill="#000000"
       fill-opacity="1"
       font-family="Arial,Arial_MSFontService,sans-serif"
       font-style="normal"
       font-variant="normal"
       font-weight="700"
       font-stretch="normal"
       font-size="90"
       text-anchor="start"
       direction="ltr"
       writing-mode="lr-tb"
       unicode-bidi="normal"
       text-decoration="none"
       transform="matrix(1 0 0 1 1720.24 718)"
       id="text496">TTP</text><text
       fill="#000000"
       fill-opacity="1"
       font-family="Arial,Arial_MSFontService,sans-serif"
       font-style="normal"
       font-variant="normal"
       font-weight="700"
       font-stretch="normal"
       font-size="90"
       text-anchor="start"
       direction="ltr"
       writing-mode="lr-tb"
       unicode-bidi="normal"
       text-decoration="none"
       transform="matrix(-1.83697e-16 -1 1 -1.83697e-16 -131.867 2628)"
       id="text498">Encryption</text><g
       clip-path="url(#clip25)"
       id="g506"><g
         clip-path="url(#clip26)"
         id="g504"><g
           clip-path="url(#clip27)"
           id="g502"><path
             d="M64.448 229.771 64.448 39.2292 142.906 39.2292 142.906 98.073 204.552 98.073 204.552 229.771 64.448 229.771ZM159.719 46.2344 194.745 81.2605 159.719 81.2605 159.719 46.2344ZM159.719 22.4167 47.6354 22.4167 47.6354 246.583 221.365 246.583 221.365 84.0626 159.719 22.4167Z"
             fill="#000000"
             fill-rule="nonzero"
             fill-opacity="1"
             transform="matrix(1.00372 0 0 1 749 2539)"
             id="path500" /></g></g></g><g
       clip-path="url(#clip28)"
       id="g528"><g
         clip-path="url(#clip29)"
         id="g526"><g
           clip-path="url(#clip30)"
           id="g524"><path
             d="M16.1651 19.0937 24.9776 19.0937 24.9776 63.1562 16.1651 63.1562Z"
             fill="#000000"
             fill-rule="nonzero"
             fill-opacity="1"
             transform="matrix(1 0 0 1.00709 818 2629)"
             id="path508" /><path
             d="M54.3525 27.9062C55.9749 27.9062 57.29 29.2214 57.29 30.8437L57.29 51.4062C57.29 53.0286 55.9749 54.3437 54.3525 54.3437L45.54 54.3437C43.9177 54.3437 42.6025 53.0286 42.6025 51.4062L42.6025 30.8437C42.6025 29.2214 43.9177 27.9062 45.54 27.9062L54.3525 27.9062M54.3525 19.0937 45.54 19.0937C39.0507 19.0937 33.79 24.3544 33.79 30.8437L33.79 51.4062C33.79 57.8956 39.0507 63.1562 45.54 63.1562L54.3525 63.1562C60.8419 63.1562 66.1025 57.8956 66.1025 51.4062L66.1025 30.8437C66.1025 24.3544 60.8419 19.0937 54.3525 19.0937Z"
             fill="#000000"
             fill-rule="nonzero"
             fill-opacity="1"
             transform="matrix(1 0 0 1.00709 818 2629)"
             id="path510" /><path
             d="M74.915 19.0937 83.7275 19.0937 83.7275 63.1562 74.915 63.1562Z"
             fill="#000000"
             fill-rule="nonzero"
             fill-opacity="1"
             transform="matrix(1 0 0 1.00709 818 2629)"
             id="path512" /><path
             d="M113.103 27.9062C114.725 27.9062 116.04 29.2214 116.04 30.8437L116.04 51.4062C116.04 53.0286 114.725 54.3437 113.103 54.3437L104.29 54.3437C102.668 54.3437 101.353 53.0286 101.353 51.4062L101.353 30.8437C101.353 29.2214 102.668 27.9062 104.29 27.9062L113.103 27.9062M113.103 19.0937 104.29 19.0937C97.8006 19.0937 92.54 24.3544 92.54 30.8437L92.54 51.4062C92.54 57.8956 97.8006 63.1562 104.29 63.1562L113.103 63.1562C119.592 63.1562 124.852 57.8956 124.852 51.4062L124.852 30.8437C124.852 24.3544 119.592 19.0937 113.103 19.0937Z"
             fill="#000000"
             fill-rule="nonzero"
             fill-opacity="1"
             transform="matrix(1 0 0 1.00709 818 2629)"
             id="path514" /><path
             d="M16.1651 77.8437 24.9776 77.8437 24.9776 121.906 16.1651 121.906Z"
             fill="#000000"
             fill-rule="nonzero"
             fill-opacity="1"
             transform="matrix(1 0 0 1.00709 818 2629)"
             id="path516" /><path
             d="M54.3525 86.6562C55.9749 86.6562 57.29 87.9713 57.29 89.5937L57.29 110.156C57.29 111.779 55.9749 113.094 54.3525 113.094L45.54 113.094C43.9177 113.094 42.6025 111.779 42.6025 110.156L42.6025 89.5937C42.6025 87.9713 43.9177 86.6562 45.54 86.6562L54.3525 86.6562M54.3525 77.8437 45.54 77.8437C39.0507 77.8437 33.79 83.1043 33.79 89.5937L33.79 110.156C33.79 116.646 39.0507 121.906 45.54 121.906L54.3525 121.906C60.8419 121.906 66.1025 116.646 66.1025 110.156L66.1025 89.5937C66.1025 83.1043 60.8419 77.8437 54.3525 77.8437Z"
             fill="#000000"
             fill-rule="nonzero"
             fill-opacity="1"
             transform="matrix(1 0 0 1.00709 818 2629)"
             id="path518" /><path
             d="M74.915 77.8437 83.7275 77.8437 83.7275 121.906 74.915 121.906Z"
             fill="#000000"
             fill-rule="nonzero"
             fill-opacity="1"
             transform="matrix(1 0 0 1.00709 818 2629)"
             id="path520" /><path
             d="M113.103 86.6562C114.725 86.6562 116.04 87.9713 116.04 89.5937L116.04 110.156C116.04 111.779 114.725 113.094 113.103 113.094L104.29 113.094C102.668 113.094 101.353 111.779 101.353 110.156L101.353 89.5937C101.353 87.9713 102.668 86.6562 104.29 86.6562L113.103 86.6562M113.103 77.8437 104.29 77.8437C97.8006 77.8437 92.54 83.1043 92.54 89.5937L92.54 110.156C92.54 116.646 97.8006 121.906 104.29 121.906L113.103 121.906C119.592 121.906 124.852 116.646 124.852 110.156L124.852 89.5937C124.852 83.1043 119.592 77.8437 113.103 77.8437Z"
             fill="#000000"
             fill-rule="nonzero"
             fill-opacity="1"
             transform="matrix(1 0 0 1.00709 818 2629)"
             id="path522" /></g></g></g><g
       clip-path="url(#clip31)"
       id="g536"><g
         clip-path="url(#clip32)"
         id="g534"><g
           clip-path="url(#clip33)"
           id="g532"><path
             d="M79.1666 109.567 79.1666 117.958 72.8333 117.958 72.8333 109.567C69.1916 108.3 66.5 104.817 66.5 100.542 66.5 95.3166 70.775 91.0416 76 91.0416 81.225 91.0416 85.5 95.3166 85.5 100.542 85.5 104.658 82.8083 108.142 79.1666 109.567ZM52.25 51.4583C52.25 38.3167 62.8583 27.7083 76 27.7083 89.1416 27.7083 99.75 38.3167 99.75 51.4583L99.75 69.0333 76 67.2916 52.25 69.0333 52.25 51.4583ZM109.25 69.6666 109.25 51.4583C109.25 33.0917 94.3666 18.2083 76 18.2083 57.6333 18.2083 42.75 33.0917 42.75 51.4583L42.75 69.6666 31.6667 70.4583 31.6667 130.625 76 133.792 120.333 130.625 120.333 70.4583 109.25 69.6666Z"
             fill="#338276"
             fill-rule="nonzero"
             fill-opacity="1"
             transform="matrix(1 0 0 1 702 2481)"
             id="path530" /></g></g></g><text
       fill="#000000"
       fill-opacity="1"
       font-family="Arial,Arial_MSFontService,sans-serif"
       font-style="normal"
       font-variant="normal"
       font-weight="700"
       font-stretch="normal"
       font-size="52"
       text-anchor="start"
       direction="ltr"
       writing-mode="lr-tb"
       unicode-bidi="normal"
       text-decoration="none"
       transform="matrix(1 0 0 1 610.687 2883)"
       id="text538">Encrypt </text><text
       fill="#000000"
       fill-opacity="1"
       font-family="Arial,Arial_MSFontService,sans-serif"
       font-style="normal"
       font-variant="normal"
       font-weight="700"
       font-stretch="normal"
       font-size="52"
       text-anchor="start"
       direction="ltr"
       writing-mode="lr-tb"
       unicode-bidi="normal"
       text-decoration="none"
       transform="matrix(1 0 0 1 820.374 2883)"
       id="text540">AES Key </text><text
       fill="#000000"
       fill-opacity="1"
       font-family="Arial,Arial_MSFontService,sans-serif"
       font-style="normal"
       font-variant="normal"
       font-weight="700"
       font-stretch="normal"
       font-size="52"
       text-anchor="start"
       direction="ltr"
       writing-mode="lr-tb"
       unicode-bidi="normal"
       text-decoration="none"
       transform="matrix(1 0 0 1 1052.98 2883)"
       id="text542">with</text><text
       fill="#000000"
       fill-opacity="1"
       font-family="Arial,Arial_MSFontService,sans-serif"
       font-style="normal"
       font-variant="normal"
       font-weight="700"
       font-stretch="normal"
       font-size="52"
       text-anchor="start"
       direction="ltr"
       writing-mode="lr-tb"
       unicode-bidi="normal"
       text-decoration="none"
       transform="matrix(1 0 0 1 680.583 2946)"
       id="text544">Alice Public Key</text><g
       clip-path="url(#clip34)"
       id="g552"><g
         clip-path="url(#clip35)"
         id="g550"><g
           clip-path="url(#clip36)"
           id="g548"><path
             d="M78.6458 108.846 78.6458 117.182 72.3541 117.182 72.3541 108.846C68.7364 107.587 66.0625 104.127 66.0625 99.8801 66.0625 94.6895 70.3093 90.4426 75.5 90.4426 80.6906 90.4426 84.9374 94.6895 84.9374 99.8801 84.9374 103.97 82.2635 107.43 78.6458 108.846ZM51.9062 51.1198C51.9062 38.0646 62.4448 27.526 75.5 27.526 88.5552 27.526 99.0937 38.0646 99.0937 51.1198L99.0937 68.5791 75.5 66.8489 51.9062 68.5791 51.9062 51.1198ZM108.531 69.2083 108.531 51.1198C108.531 32.8739 93.7458 18.0885 75.5 18.0885 57.2541 18.0885 42.4687 32.8739 42.4687 51.1198L42.4687 69.2083 31.4583 69.9948 31.4583 129.766 75.5 132.911 119.542 129.766 119.542 69.9948 108.531 69.2083Z"
             fill="#000000"
             fill-rule="nonzero"
             fill-opacity="1"
             transform="matrix(1.00662 0 0 1 706 1808)"
             id="path546" /></g></g></g><g
       clip-path="url(#clip37)"
       id="g570"><g
         clip-path="url(#clip38)"
         id="g568"><g
           clip-path="url(#clip39)"
           id="g566"><path
             d="M813.688 2100.62 813.688 1909.38 884 1909.38 884 1968.44 954.312 1968.44 954.312 2100.62 813.688 2100.62ZM900.875 1916.41 936.031 1951.56 900.875 1951.56 900.875 1916.41ZM900.875 1892.5 796.813 1892.5 796.813 2117.5 971.187 2117.5 971.187 1954.38 900.875 1892.5Z"
             fill="#000000"
             fill-rule="nonzero"
             fill-opacity="1"
             id="path554" /><path
             d="M830.562 1996.56 937.437 1996.56 937.437 2007.81 830.562 2007.81Z"
             fill="#000000"
             fill-rule="nonzero"
             fill-opacity="1"
             id="path556" /><path
             d="M830.562 1974.06 867.125 1974.06 867.125 1985.31 830.562 1985.31Z"
             fill="#000000"
             fill-rule="nonzero"
             fill-opacity="1"
             id="path558" /><path
             d="M830.562 2019.06 937.437 2019.06 937.437 2030.31 830.562 2030.31Z"
             fill="#000000"
             fill-rule="nonzero"
             fill-opacity="1"
             id="path560" /><path
             d="M830.562 2041.56 937.437 2041.56 937.437 2052.81 830.562 2052.81Z"
             fill="#000000"
             fill-rule="nonzero"
             fill-opacity="1"
             id="path562" /><path
             d="M830.562 2064.06 937.437 2064.06 937.437 2075.31 830.562 2075.31Z"
             fill="#000000"
             fill-rule="nonzero"
             fill-opacity="1"
             id="path564" /></g></g></g><rect
       x="841"
       y="2073"
       width="214"
       height="97"
       fill="#FFFFFF"
       fill-opacity="1"
       id="rect572" /><text
       fill="#000000"
       fill-opacity="1"
       font-family="Arial,Arial_MSFontService,sans-serif"
       font-style="normal"
       font-variant="normal"
       font-weight="700"
       font-stretch="normal"
       font-size="52"
       text-anchor="start"
       direction="ltr"
       writing-mode="lr-tb"
       unicode-bidi="normal"
       text-decoration="none"
       transform="matrix(1 0 0 1 873.538 2141)"
       id="text574">FAST</text><text
       fill="#000000"
       fill-opacity="1"
       font-family="Arial,Arial_MSFontService,sans-serif"
       font-style="normal"
       font-variant="normal"
       font-weight="700"
       font-stretch="normal"
       font-size="52"
       text-anchor="start"
       direction="ltr"
       writing-mode="lr-tb"
       unicode-bidi="normal"
       text-decoration="none"
       transform="matrix(1 0 0 1 632.458 2218)"
       id="text578">Encrypt FASTA with</text><text
       fill="#000000"
       fill-opacity="1"
       font-family="Arial,Arial_MSFontService,sans-serif"
       font-style="normal"
       font-variant="normal"
       font-weight="700"
       font-stretch="normal"
       font-size="52"
       text-anchor="start"
       direction="ltr"
       writing-mode="lr-tb"
       unicode-bidi="normal"
       text-decoration="none"
       transform="matrix(1 0 0 1 774.839 2281)"
       id="text580">AES Key</text><text
       fill="#000000"
       fill-opacity="1"
       font-family="Arial,Arial_MSFontService,sans-serif"
       font-style="normal"
       font-variant="normal"
       font-weight="700"
       font-stretch="normal"
       font-size="52"
       text-anchor="start"
       direction="ltr"
       writing-mode="lr-tb"
       unicode-bidi="normal"
       text-decoration="none"
       transform="matrix(1 0 0 1 33.1575 2545)"
       id="text582">Generate Random </text><text
       fill="#000000"
       fill-opacity="1"
       font-family="Arial,Arial_MSFontService,sans-serif"
       font-style="normal"
       font-variant="normal"
       font-weight="700"
       font-stretch="normal"
       font-size="52"
       text-anchor="start"
       direction="ltr"
       writing-mode="lr-tb"
       unicode-bidi="normal"
       text-decoration="none"
       transform="matrix(1 0 0 1 210.762 2608)"
       id="text584">Key</text><g
       clip-path="url(#clip40)"
       id="g594"><g
         clip-path="url(#clip41)"
         id="g592"><g
           clip-path="url(#clip42)"
           id="g590"><path
             d="M100.069 62.9437C92.9812 62.9437 87.4124 57.2062 87.4124 50.2875 87.4124 43.3687 93.1499 37.6312 100.069 37.6312 107.156 37.6312 112.725 43.3687 112.725 50.2875 112.725 57.2062 106.987 62.9437 100.069 62.9437ZM128.587 42.3562C127.912 39.9937 127.069 37.8 125.887 35.775L128.587 27.8437 122.512 21.7687 114.581 24.4687C112.556 23.2875 110.362 22.4437 108 21.7687L104.287 14.3437 95.8499 14.3437 92.1374 21.7687C89.7749 22.4437 87.5812 23.2875 85.5562 24.4687L77.625 21.7687 71.55 27.8437 74.25 35.775C73.0687 37.8 72.225 39.9937 71.55 42.3562L64.125 46.0687 64.125 54.5062 71.55 58.2187C72.225 60.5812 73.0687 62.775 74.25 64.8L71.55 72.7312 77.4562 78.6375 85.3874 75.9375C87.4124 77.1187 89.6062 77.9624 91.9687 78.6375L95.6812 86.0624 104.119 86.0624 107.831 78.6375C110.194 77.9624 112.387 77.1187 114.412 75.9375L122.344 78.6375 128.419 72.7312 125.719 64.8C126.9 62.775 127.912 60.4125 128.587 58.2187L136.012 54.5062 136.012 46.0687 128.587 42.3562Z"
             fill="#2F5597"
             fill-rule="nonzero"
             fill-opacity="1"
             transform="matrix(1 0 0 1.17284 66 2145)"
             id="path586" /><path
             d="M61.9312 124.369C54.8437 124.369 49.275 118.631 49.275 111.712 49.275 104.625 55.0125 99.0562 61.9312 99.0562 69.0187 99.0562 74.5875 104.794 74.5875 111.712 74.5875 118.631 69.0187 124.369 61.9312 124.369L61.9312 124.369ZM87.7499 97.1999 90.4499 89.2687 84.3749 83.1937 76.4437 85.8937C74.4187 84.7124 72.0562 83.8687 69.8625 83.1937L66.15 75.7687 57.7125 75.7687 54 83.1937C51.6375 83.8687 49.4437 84.7124 47.4187 85.8937L39.4875 83.1937 33.5812 89.0999 36.1125 97.0312C34.9312 99.0562 34.0875 101.419 33.4125 103.612L25.9875 107.325 25.9875 115.762 33.4125 119.475C34.0875 121.837 34.9312 124.031 36.1125 126.056L33.5812 133.987 39.4875 139.894 47.4187 137.362C49.4437 138.544 51.6375 139.387 54 140.062L57.7125 147.487 66.15 147.487 69.8625 140.062C72.225 139.387 74.4187 138.544 76.4437 137.362L84.3749 140.062 90.2812 133.987 87.7499 126.225C88.9312 124.2 89.7749 122.006 90.4499 119.644L97.8749 115.931 97.8749 107.494 90.4499 103.781C89.7749 101.419 88.9312 99.2249 87.7499 97.1999Z"
             fill="#2F5597"
             fill-rule="nonzero"
             fill-opacity="1"
             transform="matrix(1 0 0 1.17284 66 2145)"
             id="path588" /></g></g></g><g
       clip-path="url(#clip43)"
       id="g616"><g
         clip-path="url(#clip44)"
         id="g614"><g
           clip-path="url(#clip45)"
           id="g612"><path
             d="M208.28 2327.23 217.155 2327.23 217.155 2371.6 208.28 2371.6Z"
             fill="#000000"
             fill-rule="nonzero"
             fill-opacity="1"
             id="path596" /><path
             d="M246.738 2336.1C248.372 2336.1 249.697 2337.43 249.697 2339.06L249.697 2359.77C249.697 2361.4 248.372 2362.73 246.738 2362.73L237.863 2362.73C236.229 2362.73 234.905 2361.4 234.905 2359.77L234.905 2339.06C234.905 2337.43 236.229 2336.1 237.863 2336.1L246.738 2336.1M246.738 2327.23 237.863 2327.23C231.328 2327.23 226.03 2332.53 226.03 2339.06L226.03 2359.77C226.03 2366.31 231.328 2371.6 237.863 2371.6L246.738 2371.6C253.274 2371.6 258.572 2366.31 258.572 2359.77L258.572 2339.06C258.572 2332.53 253.274 2327.23 246.738 2327.23Z"
             fill="#000000"
             fill-rule="nonzero"
             fill-opacity="1"
             id="path598" /><path
             d="M267.447 2327.23 276.322 2327.23 276.322 2371.6 267.447 2371.6Z"
             fill="#000000"
             fill-rule="nonzero"
             fill-opacity="1"
             id="path600" /><path
             d="M305.905 2336.1C307.539 2336.1 308.863 2337.43 308.863 2339.06L308.863 2359.77C308.863 2361.4 307.539 2362.73 305.905 2362.73L297.03 2362.73C295.396 2362.73 294.072 2361.4 294.072 2359.77L294.072 2339.06C294.072 2337.43 295.396 2336.1 297.03 2336.1L305.905 2336.1M305.905 2327.23 297.03 2327.23C290.494 2327.23 285.197 2332.53 285.197 2339.06L285.197 2359.77C285.197 2366.31 290.494 2371.6 297.03 2371.6L305.905 2371.6C312.44 2371.6 317.738 2366.31 317.738 2359.77L317.738 2339.06C317.738 2332.53 312.44 2327.23 305.905 2327.23Z"
             fill="#000000"
             fill-rule="nonzero"
             fill-opacity="1"
             id="path602" /><path
             d="M208.28 2386.4 217.155 2386.4 217.155 2430.77 208.28 2430.77Z"
             fill="#000000"
             fill-rule="nonzero"
             fill-opacity="1"
             id="path604" /><path
             d="M246.738 2395.27C248.372 2395.27 249.697 2396.6 249.697 2398.23L249.697 2418.94C249.697 2420.57 248.372 2421.9 246.738 2421.9L237.863 2421.9C236.229 2421.9 234.905 2420.57 234.905 2418.94L234.905 2398.23C234.905 2396.6 236.229 2395.27 237.863 2395.27L246.738 2395.27M246.738 2386.4 237.863 2386.4C231.328 2386.4 226.03 2391.69 226.03 2398.23L226.03 2418.94C226.03 2425.47 231.328 2430.77 237.863 2430.77L246.738 2430.77C253.274 2430.77 258.572 2425.47 258.572 2418.94L258.572 2398.23C258.572 2391.69 253.274 2386.4 246.738 2386.4Z"
             fill="#000000"
             fill-rule="nonzero"
             fill-opacity="1"
             id="path606" /><path
             d="M267.447 2386.4 276.322 2386.4 276.322 2430.77 267.447 2430.77Z"
             fill="#000000"
             fill-rule="nonzero"
             fill-opacity="1"
             id="path608" /><path
             d="M305.905 2395.27C307.539 2395.27 308.863 2396.6 308.863 2398.23L308.863 2418.94C308.863 2420.57 307.539 2421.9 305.905 2421.9L297.03 2421.9C295.396 2421.9 294.072 2420.57 294.072 2418.94L294.072 2398.23C294.072 2396.6 295.396 2395.27 297.03 2395.27L305.905 2395.27M305.905 2386.4 297.03 2386.4C290.494 2386.4 285.197 2391.69 285.197 2398.23L285.197 2418.94C285.197 2425.47 290.494 2430.77 297.03 2430.77L305.905 2430.77C312.44 2430.77 317.738 2425.47 317.738 2418.94L317.738 2398.23C317.738 2391.69 312.44 2386.4 305.905 2386.4Z"
             fill="#000000"
             fill-rule="nonzero"
             fill-opacity="1"
             id="path610" /></g></g></g><g
       clip-path="url(#clip46)"
       id="g624"><g
         clip-path="url(#clip47)"
         id="g622"><g
           clip-path="url(#clip48)"
           id="g620"><path
             d="M64.4479 229.771 64.4479 39.2291 142.906 39.2291 142.906 98.0728 204.552 98.0728 204.552 229.771 64.4479 229.771ZM159.719 46.2343 194.745 81.2604 159.719 81.2604 159.719 46.2343ZM159.719 22.4167 47.6354 22.4167 47.6354 246.583 221.364 246.583 221.364 84.0624 159.719 22.4167Z"
             fill="#000000"
             fill-rule="nonzero"
             fill-opacity="1"
             transform="matrix(1 0 0 1 124 2217)"
             id="path618" /></g></g></g><path
       d="M538.089 2565.26 563.724 2590.89 559.258 2646.63 503.522 2651.09 477.887 2625.46 533.623 2620.99Z"
       fill="#000000"
       fill-rule="evenodd"
       fill-opacity="1"
       id="path626" /><path
       d="M476.202 2163.93 501.837 2138.29 557.573 2142.76 562.039 2198.5 536.404 2224.13 531.938 2168.39Z"
       fill="#000000"
       fill-rule="evenodd"
       fill-opacity="1"
       id="path628" /><path
       d="M582 1861.34C582 1805.37 627.37 1760 683.336 1760L1088.66 1760C1144.63 1760 1190 1805.37 1190 1861.34L1190 2973.66C1190 3029.63 1144.63 3075 1088.66 3075L683.336 3075C627.37 3075 582 3029.63 582 2973.66Z"
       stroke="#000000"
       stroke-width="13.75"
       stroke-linecap="square"
       stroke-linejoin="miter"
       stroke-miterlimit="8"
       stroke-dasharray="41.25 13.75"
       stroke-opacity="1"
       fill="none"
       fill-rule="evenodd"
       id="path630" /><path
       d="M1288.5 2415.91 2251.17 2415.91 2251.17 2433.09 1288.5 2433.09ZM2242.57 2398.72 2294.14 2424.5 2242.57 2450.28Z"
       fill="#4472C4"
       fill-rule="nonzero"
       fill-opacity="1"
       id="path632" /><g
       clip-path="url(#clip49)"
       id="g640"><g
         clip-path="url(#clip50)"
         id="g638"><g
           clip-path="url(#clip51)"
           id="g636"><path
             d="M64.448 229.771 64.448 39.2292 142.906 39.2292 142.906 98.073 204.552 98.073 204.552 229.771 64.448 229.771ZM159.719 46.2344 194.745 81.2605 159.719 81.2605 159.719 46.2344ZM159.719 22.4167 47.6354 22.4167 47.6354 246.583 221.365 246.583 221.365 84.0626 159.719 22.4167Z"
             fill="#000000"
             fill-rule="nonzero"
             fill-opacity="1"
             transform="matrix(1 0 0 1.00372 2452 2229)"
             id="path634" /></g></g></g><g
       clip-path="url(#clip52)"
       id="g662"><g
         clip-path="url(#clip53)"
         id="g660"><g
           clip-path="url(#clip54)"
           id="g658"><path
             d="M2536.28 2339.23 2545.15 2339.23 2545.15 2383.6 2536.28 2383.6Z"
             fill="#000000"
             fill-rule="nonzero"
             fill-opacity="1"
             id="path642" /><path
             d="M2574.74 2348.1C2576.37 2348.1 2577.7 2349.43 2577.7 2351.06L2577.7 2371.77C2577.7 2373.4 2576.37 2374.73 2574.74 2374.73L2565.86 2374.73C2564.23 2374.73 2562.9 2373.4 2562.9 2371.77L2562.9 2351.06C2562.9 2349.43 2564.23 2348.1 2565.86 2348.1L2574.74 2348.1M2574.74 2339.23 2565.86 2339.23C2559.33 2339.23 2554.03 2344.53 2554.03 2351.06L2554.03 2371.77C2554.03 2378.31 2559.33 2383.6 2565.86 2383.6L2574.74 2383.6C2581.27 2383.6 2586.57 2378.31 2586.57 2371.77L2586.57 2351.06C2586.57 2344.53 2581.27 2339.23 2574.74 2339.23Z"
             fill="#000000"
             fill-rule="nonzero"
             fill-opacity="1"
             id="path644" /><path
             d="M2595.45 2339.23 2604.32 2339.23 2604.32 2383.6 2595.45 2383.6Z"
             fill="#000000"
             fill-rule="nonzero"
             fill-opacity="1"
             id="path646" /><path
             d="M2633.9 2348.1C2635.54 2348.1 2636.86 2349.43 2636.86 2351.06L2636.86 2371.77C2636.86 2373.4 2635.54 2374.73 2633.9 2374.73L2625.03 2374.73C2623.4 2374.73 2622.07 2373.4 2622.07 2371.77L2622.07 2351.06C2622.07 2349.43 2623.4 2348.1 2625.03 2348.1L2633.9 2348.1M2633.9 2339.23 2625.03 2339.23C2618.49 2339.23 2613.2 2344.53 2613.2 2351.06L2613.2 2371.77C2613.2 2378.31 2618.49 2383.6 2625.03 2383.6L2633.9 2383.6C2640.44 2383.6 2645.74 2378.31 2645.74 2371.77L2645.74 2351.06C2645.74 2344.53 2640.44 2339.23 2633.9 2339.23Z"
             fill="#000000"
             fill-rule="nonzero"
             fill-opacity="1"
             id="path648" /><path
             d="M2536.28 2398.4 2545.15 2398.4 2545.15 2442.77 2536.28 2442.77Z"
             fill="#000000"
             fill-rule="nonzero"
             fill-opacity="1"
             id="path650" /><path
             d="M2574.74 2407.27C2576.37 2407.27 2577.7 2408.6 2577.7 2410.23L2577.7 2430.94C2577.7 2432.57 2576.37 2433.9 2574.74 2433.9L2565.86 2433.9C2564.23 2433.9 2562.9 2432.57 2562.9 2430.94L2562.9 2410.23C2562.9 2408.6 2564.23 2407.27 2565.86 2407.27L2574.74 2407.27M2574.74 2398.4 2565.86 2398.4C2559.33 2398.4 2554.03 2403.69 2554.03 2410.23L2554.03 2430.94C2554.03 2437.47 2559.33 2442.77 2565.86 2442.77L2574.74 2442.77C2581.27 2442.77 2586.57 2437.47 2586.57 2430.94L2586.57 2410.23C2586.57 2403.69 2581.27 2398.4 2574.74 2398.4Z"
             fill="#000000"
             fill-rule="nonzero"
             fill-opacity="1"
             id="path652" /><path
             d="M2595.45 2398.4 2604.32 2398.4 2604.32 2442.77 2595.45 2442.77Z"
             fill="#000000"
             fill-rule="nonzero"
             fill-opacity="1"
             id="path654" /><path
             d="M2633.9 2407.27C2635.54 2407.27 2636.86 2408.6 2636.86 2410.23L2636.86 2430.94C2636.86 2432.57 2635.54 2433.9 2633.9 2433.9L2625.03 2433.9C2623.4 2433.9 2622.07 2432.57 2622.07 2430.94L2622.07 2410.23C2622.07 2408.6 2623.4 2407.27 2625.03 2407.27L2633.9 2407.27M2633.9 2398.4 2625.03 2398.4C2618.49 2398.4 2613.2 2403.69 2613.2 2410.23L2613.2 2430.94C2613.2 2437.47 2618.49 2442.77 2625.03 2442.77L2633.9 2442.77C2640.44 2442.77 2645.74 2437.47 2645.74 2430.94L2645.74 2410.23C2645.74 2403.69 2640.44 2398.4 2633.9 2398.4Z"
             fill="#000000"
             fill-rule="nonzero"
             fill-opacity="1"
             id="path656" /></g></g></g><g
       clip-path="url(#clip55)"
       id="g670"><g
         clip-path="url(#clip56)"
         id="g668"><g
           clip-path="url(#clip57)"
           id="g666"><path
             d="M75.5 72.3541 51.9062 74.0843 51.9062 45.6146C51.9062 32.5594 62.4448 22.0208 75.5 22.0208 88.5552 22.0208 99.0937 32.5594 99.0937 45.6146L99.0937 55.052 108.531 55.052 108.531 45.6146C108.531 27.3687 93.7458 12.5833 75.5 12.5833 57.2541 12.5833 42.4687 27.3687 42.4687 45.6146L42.4687 74.7135 31.4583 75.5 31.4583 135.271 75.5 138.417 119.542 135.271 119.542 75.5 75.5 72.3541ZM78.6458 114.351 78.6458 122.687 72.3541 122.687 72.3541 114.351C68.7364 113.093 66.0625 109.632 66.0625 105.385 66.0625 100.195 70.3093 95.9479 75.5 95.9479 80.6906 95.9479 84.9374 100.195 84.9374 105.385 84.9374 109.475 82.2635 112.935 78.6458 114.351Z"
             fill="#338276"
             fill-rule="nonzero"
             fill-opacity="1"
             transform="matrix(1 0 0 1.00662 2399 2168)"
             id="path664" /></g></g></g><text
       fill="#000000"
       fill-opacity="1"
       font-family="Arial,Arial_MSFontService,sans-serif"
       font-style="normal"
       font-variant="normal"
       font-weight="700"
       font-stretch="normal"
       font-size="52"
       text-anchor="start"
       direction="ltr"
       writing-mode="lr-tb"
       unicode-bidi="normal"
       text-decoration="none"
       transform="matrix(1 0 0 1 2317.8 2579)"
       id="text672">Decrypt</text><text
       fill="#000000"
       fill-opacity="1"
       font-family="Arial,Arial_MSFontService,sans-serif"
       font-style="normal"
       font-variant="normal"
       font-weight="700"
       font-stretch="normal"
       font-size="52"
       text-anchor="start"
       direction="ltr"
       writing-mode="lr-tb"
       unicode-bidi="normal"
       text-decoration="none"
       transform="matrix(1 0 0 1 2526.92 2579)"
       id="text674">AES Key </text><text
       fill="#000000"
       fill-opacity="1"
       font-family="Arial,Arial_MSFontService,sans-serif"
       font-style="normal"
       font-variant="normal"
       font-weight="700"
       font-stretch="normal"
       font-size="52"
       text-anchor="start"
       direction="ltr"
       writing-mode="lr-tb"
       unicode-bidi="normal"
       text-decoration="none"
       transform="matrix(1 0 0 1 2759.52 2579)"
       id="text676">with</text><text
       fill="#000000"
       fill-opacity="1"
       font-family="Arial,Arial_MSFontService,sans-serif"
       font-style="normal"
       font-variant="normal"
       font-weight="700"
       font-stretch="normal"
       font-size="52"
       text-anchor="start"
       direction="ltr"
       writing-mode="lr-tb"
       unicode-bidi="normal"
       text-decoration="none"
       transform="matrix(1 0 0 1 2378.8 2642)"
       id="text678">Alice Private Key</text><g
       clip-path="url(#clip58)"
       id="g686"><g
         clip-path="url(#clip59)"
         id="g684"><g
           clip-path="url(#clip60)"
           id="g682"><path
             d="M79.1666 109.567 79.1666 117.958 72.8333 117.958 72.8333 109.567C69.1916 108.3 66.5 104.817 66.5 100.542 66.5 95.3166 70.775 91.0416 76 91.0416 81.225 91.0416 85.5 95.3166 85.5 100.542 85.5 104.658 82.8083 108.142 79.1666 109.567ZM52.25 51.4583C52.25 38.3167 62.8583 27.7083 76 27.7083 89.1416 27.7083 99.75 38.3167 99.75 51.4583L99.75 69.0333 76 67.2916 52.25 69.0333 52.25 51.4583ZM109.25 69.6666 109.25 51.4583C109.25 33.0917 94.3666 18.2083 76 18.2083 57.6333 18.2083 42.75 33.0917 42.75 51.4583L42.75 69.6666 31.6667 70.4583 31.6667 130.625 76 133.792 120.333 130.625 120.333 70.4583 109.25 69.6666Z"
             fill="#000000"
             fill-rule="nonzero"
             fill-opacity="1"
             transform="matrix(1 0 0 1 3129 2163)"
             id="path680" /></g></g></g><g
       clip-path="url(#clip61)"
       id="g704"><g
         clip-path="url(#clip62)"
         id="g702"><g
           clip-path="url(#clip63)"
           id="g700"><path
             d="M64.4479 229.771 64.4479 39.2291 134.5 39.2291 134.5 98.0728 204.552 98.0728 204.552 229.771 64.4479 229.771ZM151.312 46.2343 186.338 81.2604 151.312 81.2604 151.312 46.2343ZM151.312 22.4167 47.6354 22.4167 47.6354 246.583 221.364 246.583 221.364 84.0624 151.312 22.4167Z"
             fill="#000000"
             fill-rule="nonzero"
             fill-opacity="1"
             transform="matrix(1.00372 0 0 1 3172 2226)"
             id="path688" /><path
             d="M81.2604 126.094 187.739 126.094 187.739 137.302 81.2604 137.302Z"
             fill="#000000"
             fill-rule="nonzero"
             fill-opacity="1"
             transform="matrix(1.00372 0 0 1 3172 2226)"
             id="path690" /><path
             d="M81.2604 103.677 117.687 103.677 117.687 114.885 81.2604 114.885Z"
             fill="#000000"
             fill-rule="nonzero"
             fill-opacity="1"
             transform="matrix(1.00372 0 0 1 3172 2226)"
             id="path692" /><path
             d="M81.2604 148.51 187.739 148.51 187.739 159.719 81.2604 159.719Z"
             fill="#000000"
             fill-rule="nonzero"
             fill-opacity="1"
             transform="matrix(1.00372 0 0 1 3172 2226)"
             id="path694" /><path
             d="M81.2604 170.927 187.739 170.927 187.739 182.135 81.2604 182.135Z"
             fill="#000000"
             fill-rule="nonzero"
             fill-opacity="1"
             transform="matrix(1.00372 0 0 1 3172 2226)"
             id="path696" /><path
             d="M81.2604 193.344 187.739 193.344 187.739 204.552 81.2604 204.552Z"
             fill="#000000"
             fill-rule="nonzero"
             fill-opacity="1"
             transform="matrix(1.00372 0 0 1 3172 2226)"
             id="path698" /></g></g></g><rect
       x="3264"
       y="2429"
       width="214"
       height="97"
       fill="#FFFFFF"
       fill-opacity="1"
       id="rect706" /><text
       fill="#000000"
       fill-opacity="1"
       font-family="Arial,Arial_MSFontService,sans-serif"
       font-style="normal"
       font-variant="normal"
       font-weight="700"
       font-stretch="normal"
       font-size="52"
       text-anchor="start"
       direction="ltr"
       writing-mode="lr-tb"
       unicode-bidi="normal"
       text-decoration="none"
       transform="matrix(1 0 0 1 3296.52 2496)"
       id="text708">FAST</text><text
       fill="#000000"
       fill-opacity="1"
       font-family="Arial,Arial_MSFontService,sans-serif"
       font-style="normal"
       font-variant="normal"
       font-weight="700"
       font-stretch="normal"
       font-size="52"
       text-anchor="start"
       direction="ltr"
       writing-mode="lr-tb"
       unicode-bidi="normal"
       text-decoration="none"
       transform="matrix(1 0 0 1 3296.52 2559)"
       id="text710">A</text><text
       fill="#000000"
       fill-opacity="1"
       font-family="Arial,Arial_MSFontService,sans-serif"
       font-style="normal"
       font-variant="normal"
       font-weight="700"
       font-stretch="normal"
       font-size="52"
       text-anchor="start"
       direction="ltr"
       writing-mode="lr-tb"
       unicode-bidi="normal"
       text-decoration="none"
       transform="matrix(1 0 0 1 3055.43 2573)"
       id="text712">Decrypt FASTA with</text><text
       fill="#000000"
       fill-opacity="1"
       font-family="Arial,Arial_MSFontService,sans-serif"
       font-style="normal"
       font-variant="normal"
       font-weight="700"
       font-stretch="normal"
       font-size="52"
       text-anchor="start"
       direction="ltr"
       writing-mode="lr-tb"
       unicode-bidi="normal"
       text-decoration="none"
       transform="matrix(1 0 0 1 3197.82 2636)"
       id="text714">AES Key</text><text
       fill="#000000"
       fill-opacity="1"
       font-family="Arial,Arial_MSFontService,sans-serif"
       font-style="normal"
       font-variant="normal"
       font-weight="700"
       font-stretch="normal"
       font-size="90"
       text-anchor="start"
       direction="ltr"
       writing-mode="lr-tb"
       unicode-bidi="normal"
       text-decoration="none"
       transform="matrix(6.12323e-17 1 -1 6.12323e-17 3734.02 2155)"
       id="text716">Decryption</text><path
       d="M2913 2326 2949 2326 2985 2368.5 2949 2411 2913 2411 2949 2368.5Z"
       fill="#000000"
       fill-rule="evenodd"
       fill-opacity="1"
       id="path718" /><path
       d="M1943.1 267.56C1891.27 263.429 1842.94 239.767 1807.87 201.356 1801.26 193.691 1789.69 192.839 1782.03 199.452 1781.35 200.039 1780.72 200.675 1780.13 201.356 1745.06 239.767 1696.73 263.429 1644.9 267.56 1635.27 268.463 1627.93 276.588 1628 286.266L1628 333.461C1628 436.065 1693.23 529.922 1783.79 588 1790.01 592 1797.99 592 1804.21 588 1894.77 529.908 1960 436.065 1960 333.461L1960 286.266C1960.07 276.588 1952.73 268.463 1943.1 267.56ZM1928.23 333.461C1928.23 415.11 1879.62 497.478 1798.18 553.845L1794 556.734 1789.83 553.845C1708.39 497.473 1659.76 415.086 1659.76 333.461L1659.76 298.01 1665.94 297.032C1711.96 289.751 1754.79 268.996 1789.03 237.384L1794 232.808 1798.97 237.384C1833.21 268.996 1876.04 289.751 1922.06 297.032L1928.23 298.01Z"
       fill="#2F5597"
       fill-rule="evenodd"
       fill-opacity="1"
       id="path720" /><path
       d="M1794 253C1759.95 282.666 1718.49 302.623 1674 310.765L1674 333.765C1674 409.132 1718.76 485.52 1794.01 539 1869.24 485.529 1914 409.137 1914 333.765L1914 310.765C1869.51 302.623 1828.05 282.666 1794 253ZM1781.41 443.75 1731.82 394.344 1748.67 377.558 1781.41 410.172 1848.46 343.38 1865.31 360.171Z"
       fill="#338276"
       fill-rule="evenodd"
       fill-opacity="1"
       id="path722" /><g
       clip-path="url(#clip64)"
       id="g730"><g
         clip-path="url(#clip65)"
         id="g728"><g
           clip-path="url(#clip66)"
           id="g726"><path
             d="M166.778 133.164 183.585 149.971 200.392 133.164 217.199 149.971 237.885 124.114 217.199 98.2569 112.478 98.2569C103.17 81.1912 85.3283 69.8141 64.6427 69.8141 34.6485 69.8141 10.3428 94.1198 10.3428 124.114 10.3428 154.108 34.6485 178.414 64.6427 178.414 85.3283 178.414 103.17 167.037 112.478 149.971L129.285 149.971 139.628 139.628 149.971 149.971 166.778 133.164ZM41.3713 139.628C32.8385 139.628 25.8571 132.647 25.8571 124.114 25.8571 115.581 32.8385 108.6 41.3713 108.6 49.9042 108.6 56.8856 115.581 56.8856 124.114 56.8856 132.647 49.9042 139.628 41.3713 139.628Z"
             fill="#2F5597"
             fill-rule="nonzero"
             fill-opacity="1"
             transform="matrix(0.656059 0.75471 0.75471 -0.656059 2110.84 1023.38)"
             id="path724" /></g></g></g><g
       clip-path="url(#clip67)"
       id="g738"><g
         clip-path="url(#clip68)"
         id="g736"><g
           clip-path="url(#clip69)"
           id="g734"><path
             d="M2475.12 811.369 2476.78 787.658 2453.07 786 2454.73 762.289 2421.64 763.641 2415.7 796.216 2484.4 875.25C2477.63 893.472 2480.75 914.401 2494.32 930.013 2514 952.649 2548.29 955.047 2570.92 935.369 2593.56 915.691 2595.96 881.402 2576.28 858.765 2562.71 843.153 2542.42 837.152 2523.43 841.323L2512.4 828.638 2497.81 827.618 2498.83 813.027 2475.12 811.369ZM2562.27 901.773C2567.87 908.213 2567.18 918.062 2560.74 923.661 2554.3 929.259 2544.46 928.57 2538.86 922.13 2533.26 915.69 2533.95 905.841 2540.39 900.243 2546.83 894.645 2556.68 895.334 2562.27 901.773Z"
             fill="#338276"
             fill-rule="nonzero"
             fill-opacity="1"
             id="path732" /></g></g></g><path
       d="M1967 490.877 2716.2 1356.75 2703.2 1367.99 1954 502.123ZM2723.57 1339 2737.81 1394.86 2684.58 1372.74Z"
       fill="#4472C4"
       fill-rule="nonzero"
       fill-opacity="1"
       id="path740" /><path
       d="M2771.86 1348.95 2031.2 496.572 2044.17 485.298 2784.83 1337.67ZM2023.86 514.332 2009.5 458.5 2062.78 480.511Z"
       fill="#338276"
       fill-rule="nonzero"
       fill-opacity="1"
       id="path742" /></g></svg>
